<?xml version="1.0" encoding="UTF-8" standalone="no"?>
<!-- Created with Inkscape (http://www.inkscape.org/) -->

<svg
   width="210mm"
   height="297mm"
   viewBox="0 0 210 297"
   version="1.1"
   id="svg1"
   inkscape:version="1.3 (0e150ed6c4, 2023-07-21)"
   sodipodi:docname="drawing.svg"
   xmlns:inkscape="http://www.inkscape.org/namespaces/inkscape"
   xmlns:sodipodi="http://sodipodi.sourceforge.net/DTD/sodipodi-0.dtd"
   xmlns="http://www.w3.org/2000/svg"
   xmlns:svg="http://www.w3.org/2000/svg">
  <sodipodi:namedview
     id="namedview1"
     pagecolor="#ffffff"
     bordercolor="#000000"
     borderopacity="0.25"
     inkscape:showpageshadow="2"
     inkscape:pageopacity="0.0"
     inkscape:pagecheckerboard="0"
     inkscape:deskcolor="#d1d1d1"
     inkscape:document-units="mm"
     inkscape:export-bgcolor="#ffffff00"
     inkscape:zoom="0.70710678"
     inkscape:cx="129.40054"
     inkscape:cy="116.67262"
     inkscape:window-width="1920"
     inkscape:window-height="991"
     inkscape:window-x="-9"
     inkscape:window-y="-9"
     inkscape:window-maximized="1"
     inkscape:current-layer="layer1" />
  <defs
     id="defs1" />
  <g
     inkscape:label="Layer 1"
     inkscape:groupmode="layer"
     id="layer1">
    <path
       d="m 41.830005,59.417045 -0.471806,0.479557 -0.422196,0.428915 -6.911723,7.021793 -2.549199,2.589506 -5.204333,5.287533 -0.894002,0.907438 -0.907955,-0.893485 -4.629175,-4.556828 -2.658236,-2.616895 -0.03824,-0.03772 -4.779037,4.855001 2.606559,2.565218 9.754444,9.601998 c 0.01984,0.0018 0.03852,0.006 0.05839,0.0078 0.1799,0.01542 0.367482,0.01508 0.550871,0.02325 l 4.01991,-4.083988 0.474389,-0.482141 0.893486,-0.907955 1.595251,-1.620057 4.535124,-4.60747 8.535396,-8.670789 0.417029,-0.423747 0.476974,-0.484724 z m -15.903939,4.69222 c -0.39368,0 -0.780003,0.01629 -1.159102,0.04909 -0.3791,0.03281 -0.751176,0.08218 -1.115694,0.147794 -0.364519,0.06561 -0.721315,0.14756 -1.071253,0.24598 -0.349938,0.09842 -0.693004,0.213455 -1.028361,0.344682 -0.335357,0.131227 -0.659581,0.275607 -0.973067,0.433565 -0.313486,0.157958 -0.615823,0.329491 -0.907438,0.514181 -0.291615,0.184689 -0.572582,0.382858 -0.842326,0.594279 -0.269744,0.21142 -0.528308,0.436225 -0.77618,0.674377 -0.0038,0.0036 -0.007,0.0077 -0.01085,0.01137 l 2.580721,2.539897 c 0.05787,-0.06233 0.110781,-0.128868 0.171049,-0.189136 0.165248,-0.165249 0.336781,-0.320831 0.51418,-0.466638 0.177399,-0.145808 0.360805,-0.281878 0.550354,-0.408244 0.18955,-0.126367 0.385344,-0.243441 0.587045,-0.350366 0.2017,-0.106926 0.409366,-0.203971 0.623217,-0.291455 0.218712,-0.08749 0.442329,-0.16383 0.67076,-0.229444 0.228432,-0.06561 0.461547,-0.120589 0.699699,-0.164331 0.238152,-0.04374 0.481282,-0.07631 0.729155,-0.09819 0.247872,-0.02187 0.5005,-0.03307 0.758093,-0.03307 0.257593,0 0.510221,0.0112 0.758093,0.03307 0.247873,0.02187 0.491003,0.05444 0.729155,0.09819 0.238152,0.04374 0.471784,0.09872 0.700215,0.164331 0.228432,0.06561 0.451533,0.141959 0.670244,0.229444 0.218711,0.08748 0.430456,0.184529 0.634586,0.291455 0.204131,0.106925 0.401112,0.223999 0.590662,0.350366 0.18955,0.126366 0.371768,0.262436 0.546737,0.408244 0.0081,0.0068 0.01517,0.0149 0.02325,0.0217 l 2.502173,-2.541447 c -0.01996,-0.01589 -0.0378,-0.03439 -0.05788,-0.05013 -0.269743,-0.211421 -0.550194,-0.40959 -0.841809,-0.594279 -0.291615,-0.18469 -0.594469,-0.356223 -0.907955,-0.514181 -0.313486,-0.157958 -0.63771,-0.302338 -0.973067,-0.433565 -0.330497,-0.131227 -0.669484,-0.246262 -1.016992,-0.344682 -0.347508,-0.09842 -0.703633,-0.180366 -1.068152,-0.24598 -0.364519,-0.06561 -0.737782,-0.114988 -1.119311,-0.147794 -0.38153,-0.03281 -0.771415,-0.04909 -1.169955,-0.04909 z m 10.969356,11.04222 -5.265311,5.348511 -0.893486,0.907955 -3.586861,3.643705 c 0.364699,-0.03277 0.722858,-0.07921 1.072803,-0.142627 0.362091,-0.06561 0.716172,-0.147559 1.062467,-0.24598 0.346296,-0.09842 0.684943,-0.213454 1.015442,-0.344681 0.33536,-0.131228 0.659579,-0.275271 0.973067,-0.432015 0.313489,-0.156745 0.616338,-0.326236 0.907955,-0.508497 0.291617,-0.18226 0.572063,-0.3772 0.841809,-0.584977 0.269746,-0.207777 0.528822,-0.428164 0.776697,-0.661458 0.247875,-0.233294 0.481838,-0.477607 0.701766,-0.732772 0.219928,-0.255165 0.425552,-0.521364 0.617533,-0.798401 0.191982,-0.277036 0.3703,-0.565122 0.534335,-0.86403 0.164034,-0.298907 0.314013,-0.608363 0.450101,-0.929142 0.136088,-0.320779 0.255019,-0.649076 0.357085,-0.984436 0.102066,-0.33536 0.187237,-0.677904 0.255281,-1.027844 0.06804,-0.349941 0.11894,-0.707248 0.152962,-1.071769 0.01743,-0.186738 0.01785,-0.380978 0.02636,-0.571542 z m -21.560957,2.441712 c 0.02108,0.07558 0.03406,0.154592 0.05684,0.229443 0.102066,0.33536 0.220995,0.663656 0.357084,0.984436 0.136088,0.315919 0.286583,0.621812 0.450618,0.91829 0.164035,0.296478 0.341836,0.583376 0.533818,0.860413 0.191981,0.277037 0.398122,0.544422 0.61805,0.802018 0.219928,0.257596 0.453891,0.505469 0.701766,0.743624 0.247875,0.233294 0.506433,0.453681 0.77618,0.661458 0.269746,0.207778 0.550708,0.402716 0.842326,0.584977 0.291617,0.182262 0.593949,0.351752 0.907438,0.508497 0.313489,0.156744 0.637707,0.300787 0.973067,0.432015 0.303419,0.118729 0.615377,0.220251 0.931726,0.312125 z"
       style="font-variation-settings:'wght' 500;display:inline;fill:#040101;stroke-width:1.274;stroke-opacity:0.994575"
       id="path27"
       inkscape:export-filename="LogoName.svg"
       inkscape:export-xdpi="96.400002"
       inkscape:export-ydpi="96.400002" />
    <text
       xml:space="preserve"
       style="font-style:normal;font-variant:normal;font-weight:600;font-stretch:normal;font-size:36px;font-family:Montserrat;-inkscape-font-specification:'Montserrat, @wght=600';font-variant-ligatures:normal;font-variant-caps:normal;font-variant-numeric:normal;font-variant-east-asian:normal;font-variation-settings:'wght' 600;text-align:center;letter-spacing:0px;word-spacing:0px;text-anchor:middle;white-space:pre;inline-size:326.553;fill:#000000;fill-opacity:1;stroke:none;stroke-width:0.370346;stroke-dasharray:none;stroke-opacity:1"
       x="31.725868"
       y="79.505791"
       id="text27"
       transform="matrix(0.81005337,0,0,0.81005337,91.393269,20.416801)"
       inkscape:export-filename="text1-4.png"
       inkscape:export-xdpi="96.400002"
       inkscape:export-ydpi="96.400002"><tspan
         x="31.725868"
         y="79.505791"
         id="tspan1">cenkoMAT</tspan></text>
  </g>
</svg>
