<?xml version="1.0" encoding="UTF-8" standalone="no"?>
<!-- Created with Inkscape (http://www.inkscape.org/) -->

<svg
   width="33.917828mm"
   height="25.951904mm"
   viewBox="0 0 33.917828 25.951904"
   version="1.1"
   id="svg1"
   inkscape:version="1.3 (0e150ed6c4, 2023-07-21)"
   sodipodi:docname="drawing.svg"
   xmlns:inkscape="http://www.inkscape.org/namespaces/inkscape"
   xmlns:sodipodi="http://sodipodi.sourceforge.net/DTD/sodipodi-0.dtd"
   xmlns="http://www.w3.org/2000/svg"
   xmlns:svg="http://www.w3.org/2000/svg">
  <sodipodi:namedview
     id="namedview1"
     pagecolor="#ffffff"
     bordercolor="#000000"
     borderopacity="0.25"
     inkscape:showpageshadow="2"
     inkscape:pageopacity="0.0"
     inkscape:pagecheckerboard="0"
     inkscape:deskcolor="#d1d1d1"
     inkscape:document-units="mm"
     inkscape:export-bgcolor="#ffffff00"
     inkscape:zoom="0.70710678"
     inkscape:cx="129.40054"
     inkscape:cy="116.67262"
     inkscape:window-width="1920"
     inkscape:window-height="991"
     inkscape:window-x="-9"
     inkscape:window-y="-9"
     inkscape:window-maximized="1"
     inkscape:current-layer="layer1" />
  <defs
     id="defs1" />
  <g
     inkscape:label="Layer 1"
     inkscape:groupmode="layer"
     id="layer1"
     transform="translate(-12.364104,-59.417044)">
    <path
       d="m 41.830005,59.417045 -0.471806,0.479557 -0.422196,0.428915 -6.911723,7.021793 -2.549199,2.589506 -5.204333,5.287533 -0.894002,0.907438 -0.907955,-0.893485 -4.629175,-4.556828 -2.658236,-2.616895 -0.03824,-0.03772 -4.779037,4.855001 2.606559,2.565218 3.043742,2.9962 3.639055,3.58221 2.410188,2.372982 0.661459,0.650606 0.324528,0.319877 0.28422,-0.288871 h 5.17e-4 l 2.459798,-2.499589 0.318327,-0.322978 0.279569,-0.28422 h 5.17e-4 l 0.961699,-0.977201 0.474389,-0.482141 0.893486,-0.907955 1.595251,-1.620057 4.535124,-4.60747 8.535396,-8.670789 0.417029,-0.423747 0.476974,-0.484724 z m -15.903939,4.69222 c -0.196839,0 -0.3918,0.0042 -0.584977,0.0124 -0.193177,0.0082 -0.384578,0.02029 -0.574125,0.03669 -0.189549,0.0164 -0.377303,0.03685 -0.563273,0.06149 -0.18597,0.02464 -0.370164,0.05349 -0.552421,0.0863 -0.182259,0.0328 -0.362548,0.0696 -0.541053,0.110588 -0.178505,0.04099 -0.355232,0.08618 -0.5302,0.135392 -0.174968,0.04921 -0.348438,0.102733 -0.519865,0.160197 -0.171427,0.05746 -0.340819,0.118872 -0.508496,0.184485 -0.167677,0.06561 -0.332383,0.134463 -0.494543,0.206706 -0.162161,0.07224 -0.321782,0.147881 -0.478524,0.226859 -0.156742,0.07898 -0.310766,0.1613 -0.461987,0.247014 -0.151221,0.08571 -0.299645,0.174822 -0.445451,0.267167 -0.145807,0.09234 -0.289021,0.188265 -0.429431,0.287321 -0.140411,0.09905 -0.278024,0.201248 -0.412895,0.306958 -0.134871,0.105708 -0.267016,0.214714 -0.396358,0.327112 -0.129342,0.112397 -0.255887,0.22819 -0.379822,0.347265 -0.0038,0.0036 -0.007,0.0077 -0.01085,0.01137 l 2.580721,2.539897 c 0.05787,-0.06233 0.110781,-0.128869 0.171049,-0.189136 0.165247,-0.165248 0.336784,-0.320832 0.51418,-0.466638 0.177398,-0.145807 0.360808,-0.281879 0.550354,-0.408244 0.189549,-0.126366 0.385345,-0.243442 0.587045,-0.350366 0.201697,-0.106926 0.409369,-0.203973 0.623217,-0.291455 0.218711,-0.08749 0.442332,-0.16383 0.67076,-0.229444 0.228431,-0.06561 0.46155,-0.120589 0.699699,-0.164331 0.238151,-0.04374 0.481284,-0.07631 0.729155,-0.09819 0.24787,-0.02187 0.500502,-0.03307 0.758093,-0.03307 0.257591,0 0.510224,0.0112 0.758093,0.03307 0.247872,0.02187 0.491004,0.05442 0.729155,0.09819 0.23815,0.04374 0.471787,0.09872 0.700215,0.164331 0.228431,0.06561 0.451534,0.141959 0.670244,0.229444 0.218709,0.08748 0.430459,0.184529 0.634586,0.291455 0.20413,0.106924 0.401113,0.224 0.590662,0.350366 0.189549,0.126365 0.371769,0.262437 0.546737,0.408244 0.0081,0.0068 0.01517,0.0149 0.02325,0.0217 l 2.502173,-2.541447 c -0.01996,-0.01589 -0.0378,-0.03439 -0.05788,-0.05013 -0.13487,-0.10571 -0.272613,-0.207903 -0.412894,-0.306958 -0.140282,-0.09906 -0.283108,-0.194977 -0.428915,-0.287321 -0.145806,-0.09234 -0.294617,-0.181454 -0.445967,-0.267167 -0.151351,-0.08571 -0.305246,-0.168035 -0.461988,-0.247014 -0.156741,-0.07898 -0.316363,-0.154617 -0.478523,-0.226859 -0.162161,-0.07224 -0.326867,-0.141093 -0.494544,-0.206706 -0.165247,-0.06561 -0.332799,-0.127021 -0.502295,-0.184485 -0.169496,-0.05746 -0.340944,-0.110987 -0.514697,-0.160197 -0.173753,-0.04921 -0.349583,-0.0944 -0.527616,-0.135392 -0.178034,-0.04099 -0.358278,-0.07778 -0.540536,-0.110588 -0.182258,-0.0328 -0.366884,-0.06165 -0.553455,-0.0863 -0.18657,-0.02465 -0.375094,-0.04509 -0.565856,-0.06149 -0.190764,-0.01641 -0.383798,-0.02852 -0.578777,-0.03669 -0.194978,-0.0082 -0.391909,-0.0124 -0.591178,-0.0124 z m 10.969356,11.04222 -5.265311,5.348511 -0.893486,0.907955 -1.436088,1.458826 -2.150773,2.184879 c 0.182345,-0.01638 0.363215,-0.03631 0.542086,-0.05994 0.178871,-0.02363 0.355748,-0.05097 0.530717,-0.08268 0.181041,-0.03281 0.359848,-0.0696 0.536918,-0.110587 0.177069,-0.04099 0.352406,-0.08618 0.525549,-0.135393 0.173144,-0.04921 0.344402,-0.102732 0.513664,-0.160197 0.169262,-0.05746 0.336532,-0.118873 0.501778,-0.184484 0.112732,-0.04411 0.216882,-0.09821 0.327112,-0.145211 0.217678,-0.09282 0.437854,-0.182755 0.645955,-0.286804 0.09869,-0.04935 0.18921,-0.108327 0.285771,-0.160197 0.210163,-0.112898 0.422377,-0.223419 0.622184,-0.3483 0.127536,-0.07971 0.252229,-0.162958 0.374654,-0.248563 0.122426,-0.08561 0.242589,-0.17357 0.361735,-0.263033 0.03413,-0.02563 0.07162,-0.04735 0.10542,-0.07338 0.13487,-0.103885 0.266886,-0.210679 0.396359,-0.32091 0.129472,-0.110232 0.256404,-0.223904 0.380338,-0.340548 0.123934,-0.116644 0.244252,-0.235982 0.361218,-0.358118 0.116967,-0.122136 0.230587,-0.247075 0.340548,-0.374654 0.109961,-0.127579 0.216465,-0.258115 0.31936,-0.391191 0.102896,-0.133075 0.202185,-0.268695 0.298173,-0.40721 0.09599,-0.138514 0.188421,-0.279731 0.277503,-0.423747 0.08908,-0.144015 0.174816,-0.290832 0.256832,-0.440283 0.08201,-0.149449 0.160634,-0.301477 0.235644,-0.456303 0.07501,-0.154825 0.146415,-0.312454 0.214457,-0.472839 0.06804,-0.160385 0.131701,-0.322699 0.191203,-0.486792 0.0595,-0.164093 0.11485,-0.329968 0.165882,-0.497644 0.05103,-0.167676 0.098,-0.337197 0.140559,-0.508496 0.04256,-0.1713 0.0807,-0.344383 0.114722,-0.519348 0.03402,-0.174966 0.06392,-0.351565 0.0894,-0.5302 0.02548,-0.178636 0.04655,-0.359314 0.06356,-0.541569 0.01743,-0.186735 0.01785,-0.380983 0.02636,-0.571542 z m -21.560957,2.441712 c 0.02108,0.07558 0.03406,0.154593 0.05684,0.229443 0.05103,0.167677 0.106379,0.333552 0.165881,0.497644 0.0595,0.164092 0.123159,0.326404 0.191203,0.486792 0.06804,0.157957 0.139834,0.313615 0.214974,0.466638 0.07514,0.153024 0.153628,0.303416 0.235644,0.451652 0.08202,0.148237 0.167363,0.294285 0.256315,0.4377 0.08895,0.143414 0.181513,0.284196 0.277503,0.422713 0.09599,0.138516 0.195665,0.274568 0.29869,0.408244 0.103024,0.133675 0.209398,0.264978 0.31936,0.393774 0.109962,0.128796 0.223581,0.255368 0.340548,0.379305 0.116966,0.123938 0.237282,0.245243 0.361218,0.364319 0.123935,0.116645 0.250479,0.230317 0.379822,0.340548 0.129342,0.110231 0.261486,0.217024 0.396358,0.32091 0.13487,0.103888 0.272483,0.204818 0.412895,0.302307 0.140411,0.09749 0.283624,0.191542 0.429431,0.28267 0.13497,0.08436 0.280524,0.15624 0.420129,0.235128 0.162022,0.09155 0.318917,0.189172 0.487309,0.273369 0.156743,0.07837 0.316363,0.153818 0.478524,0.225826 0.16216,0.07201 0.326864,0.140575 0.494543,0.206189 0.151709,0.05936 0.305494,0.114175 0.460954,0.165881 0.15546,0.05171 0.312599,0.100307 0.470772,0.146244 l -1.723409,-1.696537 z"
       style="font-variation-settings:'wght' 500;display:inline;fill:#040101;stroke-width:1.274;stroke-opacity:0.994575"
       id="path5"
       inkscape:export-filename="LogoName.svg"
       inkscape:export-xdpi="96.400002"
       inkscape:export-ydpi="96.400002" />
  </g>
</svg>
